<svg id="visual" viewBox="0 0 960 540" width="960" height="540" xmlns="http://www.w3.org/2000/svg" xmlns:xlink="http://www.w3.org/1999/xlink" version="1.1">
  <g stroke-width="1" stroke-linejoin="bevel">
    <path d="M443.7 295L434.7 334L511.3 360Z" fill="#595bbb" stroke="#595bbb"></path>
    <path d="M511.3 360L555.3 237L443.7 295Z" fill="#5152af" stroke="#5152af"></path>
    <path d="M395.7 443L548.3 425L511.3 360Z" fill="#39378c" stroke="#39378c"></path>
    <path d="M511.3 360L626 291L555.3 237Z" fill="#818cf8" stroke="#818cf8"></path>
    <path d="M328 357L395.7 443L434.7 334Z" fill="#7178df" stroke="#7178df"></path>
    <path d="M434.7 334L395.7 443L511.3 360Z" fill="#39378c" stroke="#39378c"></path>
    <path d="M647 357L626 291L511.3 360Z" fill="#312e81" stroke="#312e81"></path>
    <path d="M555.3 237L421.7 180L443.7 295Z" fill="#6165c7" stroke="#6165c7"></path>
    <path d="M324 259L328 357L434.7 334Z" fill="#7178df" stroke="#7178df"></path>
    <path d="M324 259L434.7 334L443.7 295Z" fill="#818cf8" stroke="#818cf8"></path>
    <path d="M548.3 425L647 357L511.3 360Z" fill="#818cf8" stroke="#818cf8"></path>
    <path d="M421.7 180L324 259L443.7 295Z" fill="#6165c7" stroke="#6165c7"></path>
    <path d="M620 163L543.3 151L555.3 237Z" fill="#39378c" stroke="#39378c"></path>
    <path d="M555.3 237L543.3 151L421.7 180Z" fill="#413f98" stroke="#413f98"></path>
    <path d="M559.3 540L621 464L548.3 425Z" fill="#696ed3" stroke="#696ed3"></path>
    <path d="M548.3 425L621 464L647 357Z" fill="#7178df" stroke="#7178df"></path>
    <path d="M395.7 106L332 189L421.7 180Z" fill="#39378c" stroke="#39378c"></path>
    <path d="M421.7 180L332 189L324 259Z" fill="#696ed3" stroke="#696ed3"></path>
    <path d="M751.7 290L620 163L626 291Z" fill="#39378c" stroke="#39378c"></path>
    <path d="M626 291L620 163L555.3 237Z" fill="#312e81" stroke="#312e81"></path>
    <path d="M330 540L444.7 540L395.7 443Z" fill="#7982ec" stroke="#7982ec"></path>
    <path d="M395.7 443L444.7 540L548.3 425Z" fill="#6165c7" stroke="#6165c7"></path>
    <path d="M444.7 540L559.3 540L548.3 425Z" fill="#7178df" stroke="#7178df"></path>
    <path d="M504.3 65L395.7 106L421.7 180Z" fill="#696ed3" stroke="#696ed3"></path>
    <path d="M504.3 65L421.7 180L543.3 151Z" fill="#413f98" stroke="#413f98"></path>
    <path d="M227.3 437L291 467L328 357Z" fill="#7178df" stroke="#7178df"></path>
    <path d="M328 357L291 467L395.7 443Z" fill="#5152af" stroke="#5152af"></path>
    <path d="M224.3 259L328 357L324 259Z" fill="#696ed3" stroke="#696ed3"></path>
    <path d="M665 88L504.3 65L543.3 151Z" fill="#4949a3" stroke="#4949a3"></path>
    <path d="M291 467L330 540L395.7 443Z" fill="#7178df" stroke="#7178df"></path>
    <path d="M222.3 177L224.3 259L332 189Z" fill="#4949a3" stroke="#4949a3"></path>
    <path d="M332 189L224.3 259L324 259Z" fill="#6165c7" stroke="#6165c7"></path>
    <path d="M559.3 540L640 540L621 464Z" fill="#413f98" stroke="#413f98"></path>
    <path d="M763.7 356L751.7 290L647 357Z" fill="#4949a3" stroke="#4949a3"></path>
    <path d="M763.7 356L647 357L753.7 475Z" fill="#413f98" stroke="#413f98"></path>
    <path d="M647 357L751.7 290L626 291Z" fill="#5152af" stroke="#5152af"></path>
    <path d="M205.3 361L227.3 437L328 357Z" fill="#7982ec" stroke="#7982ec"></path>
    <path d="M291 467L182.3 540L330 540Z" fill="#413f98" stroke="#413f98"></path>
    <path d="M224.3 259L205.3 361L328 357Z" fill="#413f98" stroke="#413f98"></path>
    <path d="M753.7 475L647 357L621 464Z" fill="#696ed3" stroke="#696ed3"></path>
    <path d="M302 77L222.3 177L332 189Z" fill="#39378c" stroke="#39378c"></path>
    <path d="M224.3 259L124.7 349L205.3 361Z" fill="#312e81" stroke="#312e81"></path>
    <path d="M756.7 153L665 88L620 163Z" fill="#5152af" stroke="#5152af"></path>
    <path d="M620 163L665 88L543.3 151Z" fill="#696ed3" stroke="#696ed3"></path>
    <path d="M299 0L302 77L395.7 106Z" fill="#818cf8" stroke="#818cf8"></path>
    <path d="M395.7 106L302 77L332 189Z" fill="#413f98" stroke="#413f98"></path>
    <path d="M640 540L753.7 475L621 464Z" fill="#6165c7" stroke="#6165c7"></path>
    <path d="M751.7 290L756.7 153L620 163Z" fill="#312e81" stroke="#312e81"></path>
    <path d="M869.3 244L756.7 153L751.7 290Z" fill="#39378c" stroke="#39378c"></path>
    <path d="M514.3 0L452.7 0L504.3 65Z" fill="#595bbb" stroke="#595bbb"></path>
    <path d="M504.3 65L452.7 0L395.7 106Z" fill="#696ed3" stroke="#696ed3"></path>
    <path d="M665 88L514.3 0L504.3 65Z" fill="#413f98" stroke="#413f98"></path>
    <path d="M640 540L741.7 540L753.7 475Z" fill="#7982ec" stroke="#7982ec"></path>
    <path d="M847.3 425L824.3 341L763.7 356Z" fill="#39378c" stroke="#39378c"></path>
    <path d="M763.7 356L824.3 341L751.7 290Z" fill="#7178df" stroke="#7178df"></path>
    <path d="M847.3 425L763.7 356L753.7 475Z" fill="#7178df" stroke="#7178df"></path>
    <path d="M89.7 257L124.7 349L224.3 259Z" fill="#7178df" stroke="#7178df"></path>
    <path d="M205.3 361L134.7 441L227.3 437Z" fill="#413f98" stroke="#413f98"></path>
    <path d="M227.3 437L182.3 540L291 467Z" fill="#4949a3" stroke="#4949a3"></path>
    <path d="M124.7 349L134.7 441L205.3 361Z" fill="#413f98" stroke="#413f98"></path>
    <path d="M756.7 153L771.7 99L665 88Z" fill="#4949a3" stroke="#4949a3"></path>
    <path d="M665 88L665 0L514.3 0Z" fill="#4949a3" stroke="#4949a3"></path>
    <path d="M868.3 117L771.7 99L756.7 153Z" fill="#818cf8" stroke="#818cf8"></path>
    <path d="M134.7 441L182.3 540L227.3 437Z" fill="#595bbb" stroke="#595bbb"></path>
    <path d="M452.7 0L299 0L395.7 106Z" fill="#5152af" stroke="#5152af"></path>
    <path d="M302 77L183.3 66L222.3 177Z" fill="#7178df" stroke="#7178df"></path>
    <path d="M222.3 177L128.7 197L224.3 259Z" fill="#4949a3" stroke="#4949a3"></path>
    <path d="M756.7 0L665 0L665 88Z" fill="#4949a3" stroke="#4949a3"></path>
    <path d="M119.7 94L128.7 197L222.3 177Z" fill="#413f98" stroke="#413f98"></path>
    <path d="M832.3 540L847.3 425L753.7 475Z" fill="#4949a3" stroke="#4949a3"></path>
    <path d="M824.3 341L869.3 244L751.7 290Z" fill="#39378c" stroke="#39378c"></path>
    <path d="M225.3 0L183.3 66L302 77Z" fill="#818cf8" stroke="#818cf8"></path>
    <path d="M960 287L869.3 244L824.3 341Z" fill="#4949a3" stroke="#4949a3"></path>
    <path d="M0 273L89.7 257L0 186Z" fill="#39378c" stroke="#39378c"></path>
    <path d="M128.7 197L89.7 257L224.3 259Z" fill="#696ed3" stroke="#696ed3"></path>
    <path d="M124.7 349L0 441L134.7 441Z" fill="#818cf8" stroke="#818cf8"></path>
    <path d="M869.3 244L871.3 194L756.7 153Z" fill="#413f98" stroke="#413f98"></path>
    <path d="M0 441L129.7 540L134.7 441Z" fill="#7982ec" stroke="#7982ec"></path>
    <path d="M134.7 441L129.7 540L182.3 540Z" fill="#6165c7" stroke="#6165c7"></path>
    <path d="M741.7 540L832.3 540L753.7 475Z" fill="#7178df" stroke="#7178df"></path>
    <path d="M299 0L225.3 0L302 77Z" fill="#7982ec" stroke="#7982ec"></path>
    <path d="M840.3 0L756.7 0L771.7 99Z" fill="#4949a3" stroke="#4949a3"></path>
    <path d="M771.7 99L756.7 0L665 88Z" fill="#595bbb" stroke="#595bbb"></path>
    <path d="M183.3 66L119.7 94L222.3 177Z" fill="#7178df" stroke="#7178df"></path>
    <path d="M111.7 0L119.7 94L183.3 66Z" fill="#4949a3" stroke="#4949a3"></path>
    <path d="M871.3 194L868.3 117L756.7 153Z" fill="#7178df" stroke="#7178df"></path>
    <path d="M960 377L960 287L824.3 341Z" fill="#595bbb" stroke="#595bbb"></path>
    <path d="M869.3 244L960 287L871.3 194Z" fill="#696ed3" stroke="#696ed3"></path>
    <path d="M871.3 194L960 154L868.3 117Z" fill="#312e81" stroke="#312e81"></path>
    <path d="M960 377L824.3 341L847.3 425Z" fill="#7982ec" stroke="#7982ec"></path>
    <path d="M89.7 257L0 352L124.7 349Z" fill="#312e81" stroke="#312e81"></path>
    <path d="M0 273L0 352L89.7 257Z" fill="#6165c7" stroke="#6165c7"></path>
    <path d="M960 423L960 377L847.3 425Z" fill="#818cf8" stroke="#818cf8"></path>
    <path d="M0 186L89.7 257L128.7 197Z" fill="#7982ec" stroke="#7982ec"></path>
    <path d="M960 0L840.3 0L868.3 117Z" fill="#7982ec" stroke="#7982ec"></path>
    <path d="M868.3 117L840.3 0L771.7 99Z" fill="#696ed3" stroke="#696ed3"></path>
    <path d="M960 540L960 423L847.3 425Z" fill="#413f98" stroke="#413f98"></path>
    <path d="M225.3 0L111.7 0L183.3 66Z" fill="#595bbb" stroke="#595bbb"></path>
    <path d="M119.7 94L0 186L128.7 197Z" fill="#7178df" stroke="#7178df"></path>
    <path d="M0 352L0 441L124.7 349Z" fill="#5152af" stroke="#5152af"></path>
    <path d="M0 87L0 186L119.7 94Z" fill="#595bbb" stroke="#595bbb"></path>
    <path d="M960 287L960 154L871.3 194Z" fill="#818cf8" stroke="#818cf8"></path>
    <path d="M832.3 540L960 540L847.3 425Z" fill="#5152af" stroke="#5152af"></path>
    <path d="M0 441L0 540L129.7 540Z" fill="#39378c" stroke="#39378c"></path>
    <path d="M960 154L960 101L868.3 117Z" fill="#7982ec" stroke="#7982ec"></path>
    <path d="M111.7 0L0 87L119.7 94Z" fill="#696ed3" stroke="#696ed3"></path>
    <path d="M960 101L960 0L868.3 117Z" fill="#818cf8" stroke="#818cf8"></path>
    <path d="M111.7 0L0 0L0 87Z" fill="#6165c7" stroke="#6165c7"></path>
  </g>
</svg>