<?xml version="1.0" standalone="no"?>
<!DOCTYPE svg PUBLIC "-//W3C//DTD SVG 20010904//EN"
 "http://www.w3.org/TR/2001/REC-SVG-20010904/DTD/svg10.dtd">
<svg version="1.0" xmlns="http://www.w3.org/2000/svg"
 width="500.000000pt" height="500.000000pt" viewBox="0 0 500.000000 500.000000"
 preserveAspectRatio="xMidYMid meet">
<metadata>
Created by potrace 1.14, written by Peter Selinger 2001-2017
</metadata>
<g transform="translate(0.000000,500.000000) scale(0.100000,-0.100000)"
fill="#000000" stroke="none">
<path d="M2305 4603 c-292 -31 -589 -114 -817 -229 -66 -33 -233 -130 -253
-146 -5 -5 -41 -32 -80 -60 -38 -28 -72 -54 -75 -58 -3 -3 -18 -16 -35 -29
-65 -49 -174 -160 -290 -296 -92 -108 -236 -352 -295 -500 -18 -44 -36 -87
-40 -96 -20 -38 -81 -281 -97 -383 -19 -121 -24 -432 -10 -546 62 -484 285
-921 642 -1260 88 -83 118 -108 215 -180 234 -172 540 -311 815 -371 22 -4 51
-11 65 -14 14 -3 41 -8 60 -11 19 -3 38 -8 41 -9 15 -10 204 -20 359 -20 220
1 293 8 490 52 114 25 297 81 355 107 256 120 367 183 499 284 109 82 240 203
341 316 93 103 222 301 295 451 94 193 147 359 186 580 25 140 25 490 0 625
-9 52 -19 107 -21 121 -3 14 -16 65 -30 114 -105 360 -286 666 -552 927 -306
302 -709 514 -1128 594 -11 2 -31 6 -45 9 -14 2 -45 7 -70 11 -25 3 -56 8 -70
11 -31 5 -413 11 -455 6z"/>
</g>
</svg>
