<?xml version="1.0" standalone="no"?>
<!DOCTYPE svg PUBLIC "-//W3C//DTD SVG 20010904//EN"
 "http://www.w3.org/TR/2001/REC-SVG-20010904/DTD/svg10.dtd">
<svg version="1.0" xmlns="http://www.w3.org/2000/svg"
 width="500.000000pt" height="500.000000pt" viewBox="0 0 500.000000 500.000000"
 preserveAspectRatio="xMidYMid meet">
<metadata>
Created by potrace 1.14, written by Peter Selinger 2001-2017
</metadata>
<g transform="translate(0.000000,500.000000) scale(0.100000,-0.100000)"
fill="#000000" stroke="none">
<path d="M656 4263 c-3 -3 -6 -800 -6 -1769 l0 -1763 48 -3 c26 -2 215 -2 420
0 367 2 372 3 362 22 -6 11 -7 20 -2 20 10 0 8 48 -2 57 -3 4 0 13 7 21 9 13
9 14 0 8 -10 -5 -11 -1 -3 18 6 16 6 27 -1 31 -5 4 -6 12 -2 18 10 17 11 67 1
67 -5 0 -4 8 1 18 5 10 6 24 1 31 -4 8 -4 26 0 41 4 15 4 33 0 40 -5 7 -6 20
-3 28 10 26 9 77 -1 85 -8 5 -8 9 -1 15 11 7 12 48 1 59 -3 3 0 13 7 21 9 13
9 14 0 8 -10 -5 -11 -1 -3 18 6 16 6 27 -1 31 -5 4 -6 12 -2 18 10 17 11 67 1
67 -5 0 -6 6 -1 13 11 18 10 61 -2 70 -7 5 -7 9 0 15 11 7 12 48 1 59 -3 3 -1
12 5 20 9 9 8 13 0 13 -8 0 -9 5 -1 19 7 14 7 22 0 26 -7 4 -7 12 -2 18 5 7 7
25 6 41 -3 30 26 63 122 141 20 17 52 45 70 62 19 18 34 31 34 28 0 -2 13 8
29 23 31 29 79 72 162 142 29 25 68 60 88 77 20 18 42 33 49 33 7 0 10 5 7 10
-3 6 -2 10 4 10 5 0 24 -18 41 -40 17 -22 29 -40 26 -40 -3 0 10 -16 29 -35
19 -19 35 -37 35 -41 0 -6 37 -54 64 -84 7 -8 22 -30 33 -47 11 -18 23 -30 26
-26 4 3 7 1 7 -6 0 -11 40 -67 82 -115 10 -11 30 -38 45 -60 15 -23 34 -45 40
-49 7 -4 13 -12 13 -17 0 -5 10 -20 23 -34 45 -51 77 -94 77 -105 0 -7 5 -9
10 -6 5 3 10 1 10 -5 0 -11 100 -143 112 -148 5 -2 8 -10 8 -17 0 -8 9 -21 21
-29 13 -9 18 -19 13 -28 -4 -7 -4 -10 1 -6 7 7 45 -28 45 -41 0 -4 12 -21 28
-38 15 -17 43 -53 62 -80 19 -26 41 -55 50 -64 8 -9 22 -26 30 -39 8 -12 23
-32 32 -43 10 -12 21 -26 26 -32 4 -5 21 -28 37 -50 17 -22 34 -43 40 -47 5
-4 6 -8 2 -8 -5 0 5 -12 22 -26 17 -14 31 -30 31 -35 0 -8 20 -35 48 -64 6 -8
12 -16 12 -20 0 -4 7 -13 15 -21 12 -13 91 -15 536 -14 288 0 524 2 525 3 2 2
-7 15 -19 29 -39 47 -62 81 -60 90 2 4 -3 8 -11 8 -7 0 -30 26 -51 58 -21 31
-44 61 -52 65 -7 5 -11 12 -8 17 3 5 -4 11 -15 15 -11 3 -20 12 -20 19 0 7 -9
23 -20 36 -11 13 -20 27 -20 32 0 5 -4 6 -10 3 -5 -3 -10 1 -10 9 0 9 -5 16
-12 16 -6 0 -9 3 -5 6 3 3 -2 14 -11 23 -26 27 -52 61 -52 66 0 6 -28 41 -56
71 -12 12 -24 29 -27 38 -4 9 -11 16 -17 16 -5 0 -10 7 -10 15 0 9 -7 18 -15
21 -8 4 -15 11 -15 18 0 6 -15 27 -33 47 -17 20 -39 47 -47 59 -8 12 -21 28
-27 36 -7 7 -13 15 -13 18 0 3 -8 15 -17 26 -47 52 -60 68 -88 110 -16 25 -42
57 -57 72 -16 15 -28 31 -28 35 0 5 -11 20 -25 35 -14 15 -25 30 -25 33 0 3
-9 16 -21 28 -11 12 -35 42 -51 66 -17 24 -38 52 -47 61 -9 9 -25 30 -36 46
-11 15 -28 36 -37 46 -10 10 -18 21 -18 26 0 4 -16 24 -35 46 -19 21 -32 42
-29 47 3 5 2 8 -3 7 -4 -2 -9 0 -10 5 -2 4 -11 15 -20 25 -10 10 -29 33 -43
51 -14 19 -35 45 -47 60 -13 14 -23 29 -23 32 0 3 -10 17 -22 31 -42 46 -58
68 -58 77 0 5 -7 12 -16 15 -9 4 -14 9 -11 12 2 3 -6 17 -20 32 -13 15 -31 34
-39 43 -8 9 -14 21 -14 27 0 5 -4 12 -8 14 -4 2 -36 40 -71 85 l-63 83 32 27
c19 16 48 42 67 60 18 18 33 29 33 25 0 -4 16 10 35 32 19 21 35 35 35 30 0
-4 8 1 18 12 17 18 93 84 152 133 45 38 123 106 142 124 10 9 20 17 23 17 2 0
15 10 28 23 30 27 107 94 166 145 25 20 59 51 77 67 19 17 50 44 70 60 20 17
50 42 66 58 16 15 31 27 34 27 3 0 22 17 43 38 20 20 40 38 44 40 7 3 42 32
86 72 15 14 47 41 70 59 24 19 60 52 82 73 21 21 39 35 39 32 0 -4 15 10 34
30 19 20 39 36 45 36 6 0 11 5 11 11 0 5 4 7 10 4 6 -3 10 1 10 9 0 9 3 16 8
16 4 0 18 10 32 23 14 12 55 48 92 79 l67 57 -80 3 c-43 2 -79 -1 -79 -5 0 -4
-9 -3 -20 3 -11 6 -20 7 -20 3 0 -4 -36 -6 -80 -3 -44 3 -80 1 -80 -3 0 -4 -9
-3 -19 3 -14 7 -22 7 -26 0 -5 -8 -11 -7 -21 1 -11 9 -14 9 -14 0 0 -9 -5 -9
-20 -1 -11 6 -20 7 -20 2 0 -5 -18 -6 -40 -2 -22 4 -40 3 -40 -2 0 -5 -9 -4
-20 2 -11 6 -20 7 -20 2 0 -4 -27 -5 -60 -2 -33 3 -60 2 -60 -2 0 -5 -9 -4
-20 2 -11 6 -20 7 -20 2 0 -4 -27 -5 -60 -2 -33 3 -60 2 -60 -2 0 -5 -9 -4
-20 2 -11 6 -20 7 -20 2 0 -4 -27 -5 -60 -2 -33 3 -60 2 -60 -2 0 -5 -9 -4
-20 2 -11 6 -20 7 -20 3 0 -4 -42 -6 -94 -3 -85 4 -98 3 -119 -15 -14 -11 -44
-36 -67 -55 -23 -19 -53 -46 -66 -60 -13 -14 -24 -21 -24 -17 0 4 -18 -11 -40
-33 -22 -22 -42 -40 -44 -40 -2 0 -24 -18 -48 -41 -23 -22 -56 -50 -72 -62
-15 -12 -40 -33 -55 -46 -14 -13 -51 -44 -81 -70 -30 -25 -69 -59 -87 -76 -47
-43 -62 -55 -69 -58 -3 -1 -26 -20 -49 -42 -24 -22 -62 -56 -85 -75 -23 -19
-51 -44 -64 -55 -12 -11 -51 -44 -86 -74 -36 -30 -71 -62 -78 -70 -7 -9 -16
-16 -21 -16 -4 0 -19 -12 -33 -27 -14 -16 -28 -28 -32 -28 -4 0 -22 -16 -41
-35 -19 -19 -35 -32 -35 -30 0 3 -17 -12 -39 -33 -21 -20 -56 -50 -77 -67 -21
-16 -51 -42 -66 -57 -16 -16 -31 -28 -34 -28 -3 0 -20 -14 -37 -30 -82 -78
-119 -110 -127 -110 -4 0 -7 16 -6 35 2 19 -1 35 -7 35 -5 0 -5 5 2 13 8 10 7
17 -1 25 -8 8 -8 12 -1 12 10 0 10 47 -1 57 -2 3 -1 16 4 29 6 14 6 26 -1 29
-5 4 -6 12 -2 18 10 17 11 67 1 67 -5 0 -4 8 1 18 5 10 6 24 1 31 -4 8 -4 26
0 41 4 15 3 34 -2 45 -8 13 -7 16 2 10 9 -6 9 -3 1 14 -7 11 -8 21 -3 21 10 0
8 48 -2 57 -3 3 -1 14 5 24 6 13 6 19 -1 19 -5 0 -10 5 -10 11 0 5 4 8 9 5 12
-8 8 27 -4 36 -6 5 -6 8 1 8 11 0 11 46 0 57 -3 3 -1 14 5 24 6 13 6 19 -1 19
-5 0 -10 5 -10 11 0 5 4 8 9 5 12 -8 8 27 -4 36 -6 5 -6 8 1 8 11 0 11 46 0
57 -3 3 -1 14 5 24 6 13 6 19 -1 19 -5 0 -10 5 -10 11 0 5 4 8 9 5 12 -8 8 27
-4 36 -6 5 -6 8 1 8 11 0 11 46 0 57 -3 3 -1 14 5 24 6 13 6 19 -1 19 -5 0
-10 5 -10 11 0 5 4 8 8 5 9 -5 8 71 -1 80 -3 3 -2 18 3 33 4 16 4 34 0 42 -5
7 -4 21 1 30 6 11 5 20 -1 24 -6 4 -7 13 -1 24 9 15 4 18 -36 20 -26 1 -50 4
-55 7 -4 3 -8 0 -8 -6 0 -8 -6 -8 -20 0 -11 6 -20 7 -20 2 0 -5 -18 -6 -40 -2
-22 4 -40 3 -40 -2 0 -5 -9 -4 -19 2 -14 7 -22 7 -26 0 -5 -8 -11 -7 -21 1
-11 9 -14 9 -14 0 0 -9 -5 -9 -20 -1 -11 6 -20 7 -20 3 0 -4 -36 -6 -80 -3
-44 3 -80 1 -80 -3 0 -4 -9 -3 -20 3 -11 6 -20 7 -20 3 0 -4 -36 -6 -80 -3
-44 3 -80 1 -80 -3 0 -4 -9 -3 -19 3 -14 7 -22 7 -26 0 -5 -8 -11 -7 -21 1
-11 9 -14 9 -14 0 0 -8 -5 -9 -19 -2 -10 6 -21 7 -25 4z"/>
<path d="M1753 4263 c-10 -4 -13 -90 -13 -389 0 -211 4 -384 8 -384 5 0 29 20
55 44 26 24 47 41 47 39 0 -2 12 7 28 21 15 14 42 39 60 56 18 16 37 30 42 30
6 0 10 7 10 16 0 8 4 13 9 10 5 -3 12 1 15 10 4 9 9 15 11 12 5 -4 86 65 156
133 21 21 40 35 43 32 3 -3 8 2 12 11 3 9 13 16 21 16 8 0 11 5 8 10 -3 6 -2
10 4 10 9 0 58 41 123 103 10 9 18 15 18 13 0 -4 64 52 122 107 16 15 33 27
37 27 3 0 13 9 21 19 7 11 16 18 20 16 3 -2 11 5 18 16 7 10 9 19 5 18 -5 -1
-10 0 -13 1 -13 5 -88 5 -85 0 2 -4 -2 -7 -10 -7 -8 0 -15 3 -15 6 0 3 -40 6
-89 6 -51 0 -87 -4 -83 -9 3 -5 -1 -6 -8 -1 -17 11 -80 14 -74 3 3 -4 -5 -5
-18 0 -29 9 -59 9 -76 -1 -6 -5 -12 -4 -12 0 0 5 -22 8 -49 8 -27 0 -48 -2
-46 -6 2 -3 -2 -6 -10 -6 -8 0 -15 3 -15 7 0 8 -94 5 -108 -4 -7 -4 -12 -3
-12 1 0 5 -22 8 -49 8 -27 0 -48 -2 -46 -6 2 -3 -2 -6 -10 -6 -8 0 -15 3 -15
7 0 8 -19 9 -37 3z"/>
</g>
</svg>
